<svg width="199" xmlns="http://www.w3.org/2000/svg" height="198" id="screenshot-d0494aed-49ac-8013-8008-15909ed03113" viewBox="0 0 199 198" xmlns:xlink="http://www.w3.org/1999/xlink" fill="none" version="1.1"><g id="shape-d0494aed-49ac-8013-8008-15909ed03113" width="800" height="800" rx="0" ry="0" style="fill: rgb(0, 0, 0);"><g id="shape-d0494aed-49ac-8013-8008-15909ed0312d" style="display: none;"><g class="fills" id="fills-d0494aed-49ac-8013-8008-15909ed0312d"><rect width="199" height="198" x="0" transform="matrix(1.000000, 0.000000, 0.000000, 1.000000, 0.000000, 0.000000)" style="fill: none;" ry="0" fill="none" rx="0" y="0"/></g></g><g id="shape-d0494aed-49ac-8013-8008-15909ed0312e"><g class="fills" id="fills-d0494aed-49ac-8013-8008-15909ed0312e"><rect rx="0" ry="0" x="0" y="0" transform="matrix(1.000000, 0.000000, 0.000000, 1.000000, 0.000000, 0.000000)" width="0.24874999999997272" height="0.24749999999994543" style="fill: rgb(255, 255, 255);"/></g></g><g id="shape-d0494aed-49ac-8013-8008-15909ed0312f"><g class="fills" id="fills-d0494aed-49ac-8013-8008-15909ed0312f"><path d="M44.7750244140625,138.5999755859375L69.6500244140625,138.5999755859375L69.6500244140625,113.8499755859375L94.5250244140625,113.8499755859375L94.5250244140625,89.0999755859375L119.4000244140625,89.0999755859375L119.4000244140625,64.3499755859375L144.2750244140625,64.3499755859375L144.2750244140625,44.550048828125" fill="none" stroke-linecap="round" stroke-linejoin="round" style="fill: none;"/></g><g fill="none" stroke-linecap="round" stroke-linejoin="round" id="strokes-c94ee6c3-081a-80f1-8008-2129acbb5dd7-d0494aed-49ac-8013-8008-15909ed0312f" class="strokes"><g class="stroke-shape"><path d="M44.7750244140625,138.5999755859375L69.6500244140625,138.5999755859375L69.6500244140625,113.8499755859375L94.5250244140625,113.8499755859375L94.5250244140625,89.0999755859375L119.4000244140625,89.0999755859375L119.4000244140625,64.3499755859375L144.2750244140625,64.3499755859375L144.2750244140625,44.550048828125" style="fill: none; stroke-width: 6; stroke: rgb(0, 0, 0); stroke-opacity: 1;"/></g></g></g><g id="shape-d0494aed-49ac-8013-8008-15909ed03130"><g class="fills" id="fills-d0494aed-49ac-8013-8008-15909ed03130"><path d="M139.29998779296875,39.5999755859375L144.2750244140625,34.6500244140625L149.25,39.5999755859375" fill="none" stroke-linecap="round" stroke-linejoin="round" style="fill: none;"/></g><g fill="none" stroke-linecap="round" stroke-linejoin="round" id="strokes-c94ee6c3-081a-80f1-8008-2129acbc200a-d0494aed-49ac-8013-8008-15909ed03130" class="strokes"><g class="stroke-shape"><path d="M139.29998779296875,39.5999755859375L144.2750244140625,34.6500244140625L149.25,39.5999755859375" style="fill: none; stroke-width: 6; stroke: rgb(21, 101, 192); stroke-opacity: 1;"/></g></g></g></g></svg>