<?xml version="1.0" encoding="UTF-8"?>
<svg version="1.1" xmlns="http://www.w3.org/2000/svg" width="607" height="914">
<path d="M0 0 C200.31 0 400.62 0 607 0 C607 301.62 607 603.24 607 914 C406.69 914 206.38 914 0 914 C0 612.38 0 310.76 0 0 Z " fill="#FDFDFD" transform="translate(0,0)"/>
<path d="M0 0 C3.01142294 1.22175324 4.79329326 3.31823545 7.05076599 5.63223267 C7.52630417 6.11438736 8.00184235 6.59654205 8.49179077 7.0933075 C10.0070102 8.63188513 11.5116969 10.18026444 13.01560974 11.72988892 C14.52477186 13.2741758 16.03607218 14.81628158 17.55014038 16.35575867 C18.92322117 17.75351875 20.29001187 19.15744956 21.65647888 20.56167603 C23.94017951 22.91508295 23.94017951 22.91508295 26.95310974 24.79238892 C26.95310974 25.45238892 26.95310974 26.11238892 26.95310974 26.79238892 C27.94310974 27.12238892 28.93310974 27.45238892 29.95310974 27.79238892 C31.70310974 29.10488892 31.70310974 29.10488892 32.95310974 30.79238892 C32.64060974 32.97988892 32.64060974 32.97988892 31.95310974 34.79238892 C27.59415258 34.34914881 25.26547692 31.47034485 22.38279724 28.47988892 C21.8604953 27.95097046 21.33819336 27.422052 20.80006409 26.87710571 C19.13548958 25.18915664 17.48141784 23.49136851 15.82810974 21.79238892 C14.16596471 20.09518564 12.50170085 18.40013775 10.83473206 16.70767212 C9.79870796 15.65466599 8.76578549 14.59859751 7.73628235 13.53921509 C5.11140437 10.81756342 5.11140437 10.81756342 1.95310974 8.79238892 C1.95533035 9.64207748 1.95755096 10.49176605 1.95983887 11.36720276 C1.97983988 19.35775617 1.9950829 27.34830122 2.00492191 35.33887386 C2.01015021 39.44733176 2.01724687 43.55576905 2.02854919 47.66421509 C2.03938 51.6258572 2.04538698 55.58747944 2.04798698 59.54913521 C2.04984089 61.06387203 2.05346084 62.5786077 2.0588398 64.09333611 C2.06605281 66.20780704 2.06710058 68.32219485 2.06663513 70.43667603 C2.06885574 71.64246811 2.07107635 72.84826019 2.07336426 74.09059143 C1.95310974 76.79238892 1.95310974 76.79238892 0.95310974 77.79238892 C-1.34742861 77.88682227 -3.65091199 77.9098102 -5.9533844 77.90591431 C-6.67529465 77.90606033 -7.3972049 77.90620636 -8.14099121 77.90635681 C-10.53803973 77.9056576 -12.93501149 77.89786487 -15.33204651 77.89004517 C-16.98971514 77.88818101 -18.64738433 77.8867571 -20.30505371 77.88575745 C-24.6764324 77.88193204 -29.04777807 77.87210157 -33.41914368 77.86105347 C-37.87643487 77.85083983 -42.33373137 77.84625993 -46.79103088 77.84121704 C-55.54299919 77.83047932 -64.29494062 77.81340263 -73.04689026 77.79238892 C-73.04466965 78.44162827 -73.04244904 79.09086761 -73.04016113 79.75978088 C-73.01811024 86.4912664 -73.00298449 93.22274173 -72.99195862 99.95425415 C-72.98691663 102.46955787 -72.98008323 104.98485863 -72.97145081 107.50015259 C-72.95937932 111.10668666 -72.95366077 114.71318214 -72.94923401 118.31973267 C-72.94407272 119.4520079 -72.93891144 120.58428314 -72.93359375 121.75086975 C-72.93348045 123.31237511 -72.93348045 123.31237511 -72.93336487 124.90542603 C-72.93114426 125.82697983 -72.92892365 126.74853363 -72.92663574 127.69801331 C-73.04689026 129.79238892 -73.04689026 129.79238892 -74.04689026 130.79238892 C-76.31680913 130.8867887 -78.58970993 130.90981118 -80.86158752 130.90591431 C-81.92982254 130.90613335 -81.92982254 130.90613335 -83.01963806 130.90635681 C-85.38422138 130.90565762 -87.74872687 130.89786498 -90.11329651 130.89004517 C-91.74854489 130.88818101 -93.38379383 130.88675709 -95.01904297 130.88575745 C-99.33123811 130.88193209 -103.64339978 130.87210167 -107.95558167 130.86105347 C-113.12508706 130.84904519 -118.29460362 130.84443719 -123.46411896 130.83860016 C-131.32506603 130.82888991 -139.18593961 130.8097335 -147.04689026 130.79238892 C-147.04689026 148.94238892 -147.04689026 167.09238892 -147.04689026 185.79238892 C-150.03253812 187.28521284 -152.73672744 186.91155868 -156.06690979 186.90591431 C-156.78896606 186.90606033 -157.51102234 186.90620636 -158.25495911 186.90635681 C-160.64657066 186.90565898 -163.03810477 186.89787267 -165.42970276 186.89004517 C-167.08594215 186.88818052 -168.7421821 186.88675684 -170.39842224 186.88575745 C-174.76156634 186.8819359 -179.12467726 186.8721087 -183.48780823 186.86105347 C-187.93848725 186.85083156 -192.38917163 186.84625815 -196.83985901 186.84121704 C-205.57555134 186.83048612 -214.31121667 186.81341403 -223.04689026 186.79238892 C-223.04244904 187.55216034 -223.03800781 188.31193176 -223.03343201 189.09472656 C-222.99339932 196.24614208 -222.96292837 203.39750347 -222.94326591 210.54900169 C-222.93281752 214.22588242 -222.91863924 217.90267075 -222.89601135 221.57949829 C-222.87432035 225.12618547 -222.86232959 228.67278364 -222.85713577 232.21953201 C-222.85343325 233.57436144 -222.84620337 234.92918586 -222.83543015 236.28397751 C-222.82096578 238.17784649 -222.82007377 240.07180456 -222.81983948 241.96572876 C-222.81539825 243.04494598 -222.81095703 244.12416321 -222.80638123 245.23608398 C-223.04689026 247.79238892 -223.04689026 247.79238892 -225.04689026 249.79238892 C-227.94487 250.03289795 -227.94487 250.03289795 -231.69972229 250.0194397 C-232.38276428 250.01973175 -233.06580627 250.0200238 -233.76954651 250.02032471 C-236.03139367 250.01892931 -238.29291302 250.00335859 -240.55470276 249.98770142 C-242.12125977 249.98397202 -243.6878191 249.9811247 -245.25437927 249.97912598 C-249.38083823 249.97148368 -253.50715677 249.95183015 -257.63356018 249.92971802 C-261.84293213 249.90927238 -266.05232673 249.90012701 -270.26173401 249.89004517 C-278.52351726 249.86858475 -286.7851863 249.8344417 -295.04689026 249.79238892 C-295.04466965 250.64207748 -295.04244904 251.49176605 -295.04016113 252.36720276 C-295.02016012 260.35775617 -295.0049171 268.34830122 -294.99507809 276.33887386 C-294.98984979 280.44733176 -294.98275313 284.55576905 -294.97145081 288.66421509 C-294.96062 292.6258572 -294.95461302 296.58747944 -294.95201302 300.54913521 C-294.95015911 302.06387203 -294.94653916 303.5786077 -294.9411602 305.09333611 C-294.93394719 307.20780704 -294.93289942 309.32219485 -294.93336487 311.43667603 C-294.93114426 312.64246811 -294.92892365 313.84826019 -294.92663574 315.09059143 C-295.04689026 317.79238892 -295.04689026 317.79238892 -296.04689026 318.79238892 C-298.28618912 318.88675421 -300.52850776 318.90981219 -302.76979065 318.90591431 C-303.47219376 318.90606033 -304.17459686 318.90620636 -304.89828491 318.90635681 C-307.23040304 318.90565764 -309.56244225 318.89786509 -311.89454651 318.89004517 C-313.50737464 318.888181 -315.12020333 318.88675709 -316.73303223 318.88575745 C-320.98604383 318.88193215 -325.2390215 318.87210177 -329.49201965 318.86105347 C-333.82866456 318.8508396 -338.16531493 318.84625988 -342.50196838 318.84121704 C-351.01695795 318.8304795 -359.53191989 318.81340295 -368.04689026 318.79238892 C-368.37689026 317.14238892 -368.70689026 315.49238892 -369.04689026 313.79238892 C-346.27689026 313.79238892 -323.50689026 313.79238892 -300.04689026 313.79238892 C-300.08650395 291.45851463 -300.08650395 291.45851463 -300.13697815 269.12466431 C-300.14149475 264.81277466 -300.14149475 264.81277466 -300.14233398 262.79652405 C-300.14387323 261.38323146 -300.14739777 259.96994022 -300.15246582 258.55665588 C-300.15974573 256.42044785 -300.1607976 254.28432032 -300.16041565 252.14810181 C-300.16263626 250.94230972 -300.16485687 249.73651764 -300.16714478 248.4941864 C-300.04689026 245.79238892 -300.04689026 245.79238892 -299.04689026 244.79238892 C-296.83821195 244.69805906 -294.62647505 244.6749646 -292.41578674 244.67886353 C-291.72313721 244.6787175 -291.03048767 244.67857147 -290.31684875 244.67842102 C-288.0171958 244.67912017 -285.71762289 244.68691263 -283.41798401 244.69473267 C-281.82757613 244.69659684 -280.23716769 244.69802074 -278.64675903 244.69902039 C-274.45293096 244.70284563 -270.25913731 244.71267596 -266.06532288 244.72372437 C-261.78900112 244.73393835 -257.51267382 244.73851798 -253.23634338 244.74356079 C-244.83984318 244.75429823 -236.443371 244.77137472 -228.04689026 244.79238892 C-228.04911087 244.0178688 -228.05133148 243.24334869 -228.05361938 242.44535828 C-228.0736216 235.1611787 -228.08886403 227.87701237 -228.09870243 220.59281254 C-228.1039304 216.84755854 -228.11102648 213.10232716 -228.12232971 209.35708618 C-228.13316167 205.74557204 -228.13916774 202.13407971 -228.1417675 198.52255058 C-228.1436212 197.14178562 -228.14724075 195.76102191 -228.15262032 194.38026619 C-228.15983473 192.45262939 -228.16029835 190.52497085 -228.16041565 188.59732056 C-228.16263626 187.49811783 -228.16485687 186.3989151 -228.16714478 185.2664032 C-228.04689026 182.79238892 -228.04689026 182.79238892 -227.04689026 181.79238892 C-224.70435244 181.6974617 -222.39142922 181.666791 -220.04859924 181.67886353 C-218.95110352 181.67864449 -218.95110352 181.67864449 -217.83143616 181.67842102 C-215.40192242 181.67912025 -212.97248442 181.68691307 -210.54298401 181.69473267 C-208.86289512 181.69659681 -207.18280569 181.69802073 -205.50271606 181.69902039 C-201.07215383 181.70284584 -196.64162416 181.71267636 -192.21107483 181.72372437 C-187.6934605 181.73393789 -183.17584092 181.73851788 -178.65821838 181.74356079 C-169.78776133 181.75429861 -160.9173285 181.77137536 -152.04689026 181.79238892 C-152.04911087 181.10556534 -152.05133148 180.41874176 -152.05361938 179.71110535 C-152.07566921 172.5903373 -152.09079559 165.46957888 -152.1018219 158.3487854 C-152.10686409 155.6879741 -152.11369762 153.0271656 -152.12232971 150.36636353 C-152.13440034 146.55133376 -152.14011955 142.73634048 -152.14454651 138.92129517 C-152.14970779 137.72339859 -152.15486908 136.52550201 -152.16018677 135.29130554 C-152.1602623 134.19023972 -152.16033783 133.08917389 -152.16041565 131.95474243 C-152.16263626 130.97989395 -152.16485687 130.00504547 -152.16714478 129.00065613 C-152.04689026 126.79238892 -152.04689026 126.79238892 -151.04689026 125.79238892 C-148.74635191 125.69795556 -146.44286853 125.67496763 -144.14039612 125.67886353 C-143.41848587 125.6787175 -142.69657562 125.67857147 -141.95278931 125.67842102 C-139.55574078 125.67912023 -137.15876903 125.68691296 -134.76173401 125.69473267 C-133.10406537 125.69659682 -131.44639619 125.69802073 -129.78872681 125.69902039 C-125.41734812 125.70284579 -121.04600245 125.71267626 -116.67463684 125.72372437 C-112.21734565 125.733938 -107.76004914 125.7385179 -103.30274963 125.74356079 C-94.55078133 125.75429852 -85.79883989 125.7713752 -77.04689026 125.79238892 C-77.04911087 125.14314957 -77.05133148 124.49391022 -77.05361938 123.82499695 C-77.07567028 117.09351143 -77.09079603 110.3620361 -77.1018219 103.63052368 C-77.10686389 101.11521997 -77.11369728 98.5999192 -77.12232971 96.08462524 C-77.1344012 92.47809117 -77.14011975 88.87159569 -77.14454651 85.26504517 C-77.14970779 84.13276993 -77.15486908 83.00049469 -77.16018677 81.83390808 C-77.16030006 80.27240273 -77.16030006 80.27240273 -77.16041565 78.67935181 C-77.16263626 77.757798 -77.16485687 76.8362442 -77.16714478 75.88676453 C-77.04689026 73.79238892 -77.04689026 73.79238892 -76.04689026 72.79238892 C-73.77697139 72.69798913 -71.50407059 72.67496665 -69.23219299 72.67886353 C-68.16395798 72.67864449 -68.16395798 72.67864449 -67.07414246 72.67842102 C-64.70955914 72.67912021 -62.34505364 72.68691286 -59.98048401 72.69473267 C-58.34523563 72.69659682 -56.70998669 72.69802074 -55.07473755 72.69902039 C-50.76254241 72.70284574 -46.45038073 72.71267617 -42.13819885 72.72372437 C-36.96869346 72.73573265 -31.7991769 72.74034064 -26.62966156 72.74617767 C-18.76871449 72.75588792 -10.90784091 72.77504433 -3.04689026 72.79238892 C-3.04689026 51.67238892 -3.04689026 30.55238892 -3.04689026 8.79238892 C-9.44025244 14.26809024 -9.44025244 14.26809024 -14.92189026 20.22988892 C-16.60157776 22.28848267 -16.60157776 22.28848267 -18.04689026 23.79238892 C-18.70689026 23.79238892 -19.36689026 23.79238892 -20.04689026 23.79238892 C-20.04689026 24.45238892 -20.04689026 25.11238892 -20.04689026 25.79238892 C-21.50782776 27.19473267 -21.50782776 27.19473267 -23.42189026 28.72988892 C-25.88590549 30.71225508 -27.25155462 32.09938546 -29.04689026 34.79238892 C-30.69689026 34.46238892 -32.34689026 34.13238892 -34.04689026 33.79238892 C-32.73957015 30.91682627 -31.3367786 28.82135736 -29.12940979 26.56851196 C-28.54184906 25.96496384 -27.95428833 25.36141571 -27.34892273 24.73957825 C-26.71558014 24.10087296 -26.08223755 23.46216766 -25.42970276 22.80410767 C-24.776138 22.14151443 -24.12257324 21.4789212 -23.44920349 20.79624939 C-22.06832678 19.40088882 -20.68464151 18.00830283 -19.2983551 16.61831665 C-17.17428126 14.48229337 -15.06957117 12.32833005 -12.96485901 10.17324829 C-11.62095882 8.81988993 -10.27594406 7.46763725 -8.92970276 6.11660767 C-8.30040863 5.46778122 -7.6711145 4.81895477 -7.02275085 4.15046692 C-6.4288858 3.5626796 -5.83502075 2.97489227 -5.22315979 2.36929321 C-4.70512787 1.84619064 -4.18709595 1.32308807 -3.65336609 0.78413391 C-2.04689026 -0.20761108 -2.04689026 -0.20761108 0 0 Z " fill="#030303" transform="translate(466.04689025878906,328.2076110839844)"/>
<path d="M0 0 C0.68783066 -0.00175232 1.37566132 -0.00350464 2.08433533 -0.00531006 C4.36956265 -0.00972921 6.65471323 -0.00678974 8.93994141 -0.00341797 C10.52316299 -0.00409115 12.10638448 -0.00506129 13.68960571 -0.00631714 C17.01362081 -0.00779432 20.3376091 -0.00563948 23.66162109 -0.00097656 C27.92449271 0.00471146 32.18730124 0.00144774 36.45017052 -0.00454903 C39.72208125 -0.00816201 42.99397703 -0.00701249 46.26588821 -0.00442123 C47.83758171 -0.00375353 49.40927656 -0.00457495 50.98096848 -0.00690079 C53.17875514 -0.00943835 55.37643969 -0.00557068 57.57421875 0 C58.82584808 0.00079559 60.07747742 0.00159119 61.36703491 0.00241089 C64.41650391 0.12939453 64.41650391 0.12939453 67.41650391 1.12939453 C67.41650391 2.44939453 67.41650391 3.76939453 67.41650391 5.12939453 C44.31650391 5.12939453 21.21650391 5.12939453 -2.58349609 5.12939453 C-2.54388241 27.46326882 -2.54388241 27.46326882 -2.4934082 49.79711914 C-2.4888916 54.10900879 -2.4888916 54.10900879 -2.48805237 56.1252594 C-2.48651312 57.53855198 -2.48298859 58.95184323 -2.47792053 60.36512756 C-2.47064062 62.5013356 -2.46958876 64.63746313 -2.4699707 66.77368164 C-2.46775009 67.97947372 -2.46552948 69.18526581 -2.46324158 70.42759705 C-2.58349609 73.12939453 -2.58349609 73.12939453 -3.58349609 74.12939453 C-5.82279495 74.22375983 -8.06511359 74.24681781 -10.30639648 74.24291992 C-11.00879959 74.24306595 -11.7112027 74.24321198 -12.43489075 74.24336243 C-14.76700888 74.24266326 -17.09904809 74.2348707 -19.43115234 74.22705078 C-21.04398047 74.22518662 -22.65680917 74.22376271 -24.26963806 74.22276306 C-28.52264967 74.21893776 -32.77562733 74.20910738 -37.02862549 74.19805908 C-41.36527039 74.18784522 -45.70192076 74.1832655 -50.03857422 74.17822266 C-58.55356378 74.16748512 -67.06852572 74.15040856 -75.58349609 74.12939453 C-76.07849609 71.65439453 -76.07849609 71.65439453 -76.58349609 69.12939453 C-53.81349609 69.12939453 -31.04349609 69.12939453 -7.58349609 69.12939453 C-7.62310978 46.79552025 -7.62310978 46.79552025 -7.67358398 24.46166992 C-7.67810059 20.14978027 -7.67810059 20.14978027 -7.67893982 18.13352966 C-7.68047906 16.72023708 -7.6840036 15.30694584 -7.68907166 13.8936615 C-7.69635157 11.75745346 -7.69740343 9.62132593 -7.69702148 7.48510742 C-7.6992421 6.27931534 -7.70146271 5.07352325 -7.70375061 3.83119202 C-7.47499039 -1.30843853 -4.49949849 0.00286373 0 0 Z " fill="#282828" transform="translate(173.58349609375,572.87060546875)"/>
<path d="M0 0 C4.73829769 1.66717882 7.2011938 3.85362045 10 8 C11.66026461 12.98079383 11.59903425 17.30273629 9.875 22.1875 C7.62306851 25.56539724 5.72187938 28.29504551 2 30 C-3.57455935 30.87938865 -8.32458796 30.7479518 -13.5 28.4375 C-17.57511521 24.46426267 -19.737264 21.1394217 -20.4375 15.4375 C-19.64135592 9.18208219 -16.93525688 5.04479951 -12.09375 1.13671875 C-8.17180529 -0.99254601 -4.30559069 -0.71166788 0 0 Z " fill="#0E5DB3" transform="translate(470,281)"/>
<path d="M0 0 C3.01142294 1.22175324 4.79329326 3.31823545 7.05076599 5.63223267 C7.52630417 6.11438736 8.00184235 6.59654205 8.49179077 7.0933075 C10.0070102 8.63188513 11.5116969 10.18026444 13.01560974 11.72988892 C14.52477186 13.2741758 16.03607218 14.81628158 17.55014038 16.35575867 C18.92322117 17.75351875 20.29001187 19.15744956 21.65647888 20.56167603 C23.94017951 22.91508295 23.94017951 22.91508295 26.95310974 24.79238892 C26.95310974 25.45238892 26.95310974 26.11238892 26.95310974 26.79238892 C28.43810974 27.28738892 28.43810974 27.28738892 29.95310974 27.79238892 C31.70310974 29.10488892 31.70310974 29.10488892 32.95310974 30.79238892 C32.64060974 32.97988892 32.64060974 32.97988892 31.95310974 34.79238892 C27.59415258 34.34914881 25.26547692 31.47034485 22.38279724 28.47988892 C21.8604953 27.95097046 21.33819336 27.422052 20.80006409 26.87710571 C19.13548958 25.18915664 17.48141784 23.49136851 15.82810974 21.79238892 C14.16596471 20.09518564 12.50170085 18.40013775 10.83473206 16.70767212 C9.79870796 15.65466599 8.76578549 14.59859751 7.73628235 13.53921509 C5.11140437 10.81756342 5.11140437 10.81756342 1.95310974 8.79238892 C1.95310974 31.23238892 1.95310974 53.67238892 1.95310974 76.79238892 C1.62310974 76.79238892 1.29310974 76.79238892 0.95310974 76.79238892 C0.62310974 56.99238892 0.29310974 37.19238892 -0.04689026 16.79238892 C-0.37689026 16.79238892 -0.70689026 16.79238892 -1.04689026 16.79238892 C-1.37689026 35.60238892 -1.70689026 54.41238892 -2.04689026 73.79238892 C-26.46689026 73.79238892 -50.88689026 73.79238892 -76.04689026 73.79238892 C-76.04689026 73.46238892 -76.04689026 73.13238892 -76.04689026 72.79238892 C-51.95689026 72.79238892 -27.86689026 72.79238892 -3.04689026 72.79238892 C-3.04689026 51.67238892 -3.04689026 30.55238892 -3.04689026 8.79238892 C-9.44025244 14.26809024 -9.44025244 14.26809024 -14.92189026 20.22988892 C-16.60157776 22.28848267 -16.60157776 22.28848267 -18.04689026 23.79238892 C-18.70689026 23.79238892 -19.36689026 23.79238892 -20.04689026 23.79238892 C-20.04689026 24.45238892 -20.04689026 25.11238892 -20.04689026 25.79238892 C-21.50782776 27.19473267 -21.50782776 27.19473267 -23.42189026 28.72988892 C-25.88590549 30.71225508 -27.25155462 32.09938546 -29.04689026 34.79238892 C-30.69689026 34.46238892 -32.34689026 34.13238892 -34.04689026 33.79238892 C-32.73957015 30.91682627 -31.3367786 28.82135736 -29.12940979 26.56851196 C-28.2480687 25.66318977 -28.2480687 25.66318977 -27.34892273 24.73957825 C-26.71558014 24.10087296 -26.08223755 23.46216766 -25.42970276 22.80410767 C-24.44935562 21.81021782 -24.44935562 21.81021782 -23.44920349 20.79624939 C-22.06832678 19.40088882 -20.68464151 18.00830283 -19.2983551 16.61831665 C-17.17428126 14.48229337 -15.06957117 12.32833005 -12.96485901 10.17324829 C-11.62095882 8.81988993 -10.27594406 7.46763725 -8.92970276 6.11660767 C-8.30040863 5.46778122 -7.6711145 4.81895477 -7.02275085 4.15046692 C-6.13195328 3.26878593 -6.13195328 3.26878593 -5.22315979 2.36929321 C-4.70512787 1.84619064 -4.18709595 1.32308807 -3.65336609 0.78413391 C-2.04689026 -0.20761108 -2.04689026 -0.20761108 0 0 Z " fill="#343434" transform="translate(466.04689025878906,328.2076110839844)"/>
<path d="M0 0 C24.42 0 48.84 0 74 0 C74 0.99 74 1.98 74 3 C50.9 3 27.8 3 4 3 C4 23.79 4 44.58 4 66 C-19.76 66 -43.52 66 -68 66 C-68 65.67 -68 65.34 -68 65 C-44.57 65 -21.14 65 3 65 C1.89888855 63.67331911 1.89888855 63.67331911 -0.85365295 63.87974548 C-2.13050461 63.88196609 -3.40735626 63.88418671 -4.72290039 63.88647461 C-5.4253035 63.88632858 -6.1277066 63.88618256 -6.85139465 63.8860321 C-9.18351278 63.88673128 -11.515552 63.89452383 -13.84765625 63.90234375 C-15.46048438 63.90420792 -17.07331307 63.90563182 -18.68614197 63.90663147 C-22.93915357 63.91045677 -27.19213124 63.92028715 -31.44512939 63.93133545 C-35.7817743 63.94154931 -40.11842467 63.94612904 -44.45507812 63.95117188 C-52.97006769 63.96190941 -61.48502963 63.97898597 -70 64 C-70 63.67 -70 63.34 -70 63 C-46.9 63 -23.8 63 0 63 C0 42.21 0 21.42 0 0 Z " fill="#020202" transform="translate(238,511)"/>
<path d="M0 0 C0.33 0 0.66 0 1 0 C1.495 4.95 1.495 4.95 2 10 C2.33 10 2.66 10 3 10 C3.33 8.02 3.66 6.04 4 4 C4.33 4 4.66 4 5 4 C5 22.15 5 40.3 5 59 C2.01435214 60.49282393 -0.68983718 60.11916977 -4.02001953 60.11352539 C-4.74207581 60.11367142 -5.46413208 60.11381744 -6.20806885 60.1139679 C-8.59968041 60.11327007 -10.99121451 60.10548375 -13.3828125 60.09765625 C-15.03905189 60.09579161 -16.69529184 60.09436792 -18.35153198 60.09336853 C-22.71467608 60.08954699 -27.077787 60.07971978 -31.44091797 60.06866455 C-36.67385675 60.05664602 -41.90680662 60.05204646 -47.13975525 60.04621124 C-55.09319326 60.03650785 -63.04655843 60.01734876 -71 60 C-71 80.13 -71 100.26 -71 121 C-71.33 121 -71.66 121 -72 121 C-72 100.54 -72 80.08 -72 59 C-70.68 58.34 -69.36 57.68 -68 57 C-70.31 56.67 -72.62 56.34 -75 56 C-75 55.67 -75 55.34 -75 55 C-50.25 55 -25.5 55 0 55 C0 36.85 0 18.7 0 0 Z " fill="#353535" transform="translate(314,455)"/>
<path d="M0 0 C18.38766081 -0.04010881 18.38766081 -0.04010881 26.20703125 -0.04882812 C31.54900095 -0.05481306 36.89095356 -0.06190409 42.23291016 -0.07543945 C46.53820102 -0.08628024 50.84347356 -0.09227938 55.14877701 -0.09487724 C56.79386814 -0.09672933 58.43895823 -0.10034584 60.0840416 -0.10573006 C62.38271018 -0.11295628 64.68130241 -0.11399027 66.97998047 -0.11352539 C68.2901413 -0.115746 69.60030212 -0.11796661 70.95016479 -0.12025452 C74 0 74 0 76 1 C76.495 2.98 76.495 2.98 77 5 C52.58 5 28.16 5 3 5 C3 16.22 3 27.44 3 39 C2.67 39 2.34 39 2 39 C1.67 41.64 1.34 44.28 1 47 C0.67 47 0.34 47 0 47 C0 31.49 0 15.98 0 0 Z " fill="#282828" transform="translate(315,454)"/>
<path d="M0 0 C0.495 1.98 0.495 1.98 1 4 C-34.64 4.495 -34.64 4.495 -71 5 C-71 3.68 -71 2.36 -71 1 C-70.12525528 1.00222061 -69.25051056 1.00444122 -68.34925842 1.00672913 C-60.12324654 1.02672978 -51.89724277 1.04197298 -43.6712122 1.05181217 C-39.44168629 1.05704056 -35.2121804 1.0641374 -30.98266602 1.07543945 C-26.90431457 1.08626991 -22.82598243 1.09227717 -18.74761772 1.09487724 C-17.18822361 1.09673121 -15.6288306 1.10035127 -14.06944466 1.10573006 C-11.89270838 1.11294262 -9.71605286 1.11399085 -7.53930664 1.11352539 C-6.29798477 1.115746 -5.0566629 1.11796661 -3.77772522 1.12025452 C-1.092183 1.31747011 -1.092183 1.31747011 0 0 Z " fill="#151515" transform="translate(168,641)"/>
<path d="M0 0 C17.49 0 34.98 0 53 0 C53 0.33 53 0.66 53 1 C45.08 1.495 45.08 1.495 37 2 C37 2.33 37 2.66 37 3 C20.665 3.495 20.665 3.495 4 4 C3.67 15.22 3.34 26.44 3 38 C2.67 38 2.34 38 2 38 C1.67 40.64 1.34 43.28 1 46 C0.67 46 0.34 46 0 46 C0 30.82 0 15.64 0 0 Z " fill="#030303" transform="translate(315,455)"/>
<path d="M0 0 C0 3.93602341 -1.58022978 4.99361881 -4 8 C-4.165 8.66 -4.33 9.32 -4.5 10 C-5.71618343 14.86473371 -10.42605803 18.70097664 -14 22 C-14.99 22.33 -15.98 22.66 -17 23 C-17 23.66 -17 24.32 -17 25 C-18.4609375 26.40234375 -18.4609375 26.40234375 -20.375 27.9375 C-22.83901524 29.91986617 -24.20466437 31.30699655 -26 34 C-27.65 33.67 -29.3 33.34 -31 33 C-29.70280076 30.14220983 -28.3363174 28.08991464 -26.11083984 25.88378906 C-25.5303891 25.30348938 -24.94993835 24.7231897 -24.35189819 24.12530518 C-23.72788116 23.51161072 -23.10386414 22.89791626 -22.4609375 22.265625 C-21.82008209 21.62759949 -21.17922668 20.98957397 -20.51895142 20.33221436 C-18.47562179 18.30005931 -16.42544018 16.27497782 -14.375 14.25 C-12.9865214 12.8715547 -11.5984951 11.49265364 -10.2109375 10.11328125 C-6.81251303 6.73688106 -3.40792746 3.36680712 0 0 Z " fill="#0F0F0F" transform="translate(463,329)"/>
<path d="M0 0 C2.97 0.495 2.97 0.495 6 1 C6 1.33 6 1.66 6 2 C29.76 2.33 53.52 2.66 78 3 C78 3.33 78 3.66 78 4 C53.58 4 29.16 4 4 4 C4 21.16 4 38.32 4 56 C3.67 56 3.34 56 3 56 C2.99191315 55.40531418 2.98382629 54.81062836 2.97549438 54.19792175 C2.88954451 48.01738829 2.79004527 41.83717911 2.68261719 35.65698242 C2.64429584 33.34942056 2.60944859 31.04179832 2.578125 28.73413086 C2.53254318 25.42019037 2.47453712 22.10666673 2.4140625 18.79296875 C2.39673569 17.24128242 2.39673569 17.24128242 2.37905884 15.6582489 C2.35918915 14.6974794 2.33931946 13.7367099 2.31884766 12.74682617 C2.30552399 11.90077316 2.29220032 11.05472015 2.2784729 10.18302917 C2.12741711 7.70908991 2.12741711 7.70908991 0 5 C-0.125 2.3125 -0.125 2.3125 0 0 Z " fill="#141414" transform="translate(389,402)"/>
<path d="M0 0 C5.401855 0.38641007 7.55195115 2.00885263 11.1875 5.9375 C13.7476816 8.67071999 15.87803253 10.91868835 19 13 C19 13.66 19 14.32 19 15 C19.99 15.33 20.98 15.66 22 16 C23.75 17.3125 23.75 17.3125 25 19 C24.6875 21.1875 24.6875 21.1875 24 23 C19.94374064 22.46416884 18.06415346 20.43776033 15.234375 17.59765625 C14.34492188 16.70755859 13.45546875 15.81746094 12.5390625 14.90039062 C11.61867188 13.96388672 10.69828125 13.02738281 9.75 12.0625 C8.80526206 11.11986651 7.85995548 10.17780257 6.9140625 9.23632812 C0 2.26683218 0 2.26683218 0 0 Z " fill="#0F0F0F" transform="translate(474,340)"/>
<path d="M0 0 C0.33 0 0.66 0 1 0 C1 18.15 1 36.3 1 55 C-0.98 55 -2.96 55 -5 55 C-3.02 54.505 -3.02 54.505 -1 54 C-1 53.01 -1 52.02 -1 51 C-1.66 51 -2.32 51 -3 51 C-2.67 36.15 -2.34 21.3 -2 6 C-1.67 6 -1.34 6 -1 6 C-0.67 4.02 -0.34 2.04 0 0 Z " fill="#363636" transform="translate(318,459)"/>
<path d="M0 0 C3.76687864 1.88343932 4.79421646 2.69132469 7 6 C6.01 6.495 6.01 6.495 5 7 C4.01 6.67 3.02 6.34 2 6 C1.67 26.46 1.34 46.92 1 68 C0.67 68 0.34 68 0 68 C0 45.56 0 23.12 0 0 Z " fill="#D2D2D2" transform="translate(468,337)"/>
<path d="M0 0 C0.66 0.33 1.32 0.66 2 1 C2.37537635 8.25727606 1.38825756 12.18308083 -3.4375 17.875 C-7.85464616 21.36398633 -13.68521955 20.55693807 -19 20 C-19.66 19.67 -20.32 19.34 -21 19 C-21 18.34 -21 17.68 -21 17 C-19.576875 17.0928125 -19.576875 17.0928125 -18.125 17.1875 C-16.578125 17.0946875 -16.578125 17.0946875 -15 17 C-14.34 16.01 -13.68 15.02 -13 14 C-11.68 14.66 -10.36 15.32 -9 16 C-9.33 16.33 -9.66 16.66 -10 17 C-6.80849067 16.73404089 -5.23225597 16.19354664 -2.75 14.125 C-0.21013875 9.58953348 -0.17952724 5.12550257 0 0 Z " fill="#195AA2" transform="translate(479,291)"/>
<path d="M0 0 C2.97 0.495 2.97 0.495 6 1 C5.01 1.495 5.01 1.495 4 2 C4 19.82 4 37.64 4 56 C3.67 56 3.34 56 3 56 C2.99191315 55.40531418 2.98382629 54.81062836 2.97549438 54.19792175 C2.88954451 48.01738829 2.79004527 41.83717911 2.68261719 35.65698242 C2.64429584 33.34942056 2.60944859 31.04179832 2.578125 28.73413086 C2.53254318 25.42019037 2.47453712 22.10666673 2.4140625 18.79296875 C2.39673569 17.24128242 2.39673569 17.24128242 2.37905884 15.6582489 C2.35918915 14.6974794 2.33931946 13.7367099 2.31884766 12.74682617 C2.30552399 11.90077316 2.29220032 11.05472015 2.2784729 10.18302917 C2.12741711 7.70908991 2.12741711 7.70908991 0 5 C-0.125 2.3125 -0.125 2.3125 0 0 Z " fill="#0C0C0C" transform="translate(389,402)"/>
<path d="M0 0 C0.33 0 0.66 0 1 0 C1.5 3.125 1.5 3.125 1 7 C-2.23602407 10.33945863 -6.61502633 13.90225518 -11.3828125 14.09765625 C-12.28773438 14.08605469 -13.19265625 14.07445312 -14.125 14.0625 C-15.03507812 14.05347656 -15.94515625 14.04445313 -16.8828125 14.03515625 C-17.58148438 14.02355469 -18.28015625 14.01195312 -19 14 C-19 13.01 -19 12.02 -19 11 C-17.91332031 10.97873047 -17.91332031 10.97873047 -16.8046875 10.95703125 C-10.17672698 10.72066947 -10.17672698 10.72066947 -4.4375 7.75 C-2.14223788 5.16047351 -0.9430489 3.30067114 0 0 Z " fill="#D4E8F6" transform="translate(480,300)"/>
<path d="M0 0 C4.25110499 1.54585636 6.61085159 3.15081645 9 7 C7.68 6.67 6.36 6.34 5 6 C5 5.34 5 4.68 5 4 C1.457201 2.819067 -1.28359861 2.72971626 -5 3 C-5.99 4.485 -5.99 4.485 -7 6 C-7.33 5.01 -7.66 4.02 -8 3 C-8.99 3.66 -9.98 4.32 -11 5 C-13.0625 6.1875 -13.0625 6.1875 -15 7 C-15.66 6.67 -16.32 6.34 -17 6 C-11.8547821 0.27551915 -7.63653107 -1.27275518 0 0 Z " fill="#2361A7" transform="translate(470,281)"/>
<path d="M0 0 C1 3 1 3 0.75 6.1875 C1.07729581 11.17876108 2.92886626 14.13715756 6 18 C8.12139833 19.95408024 8.12139833 19.95408024 10 21 C6.04 21.495 6.04 21.495 2 22 C2 21.34 2 20.68 2 20 C1.34 20 0.68 20 0 20 C-0.59732819 17.23735711 -1 14.83967231 -1 12 C-1.20625 11.2575 -1.4125 10.515 -1.625 9.75 C-2.12014584 6.11893052 -1.14661828 3.43985483 0 0 Z " fill="#E7F5FA" transform="translate(450,290)"/>
<path d="M0 0 C0.66 0.33 1.32 0.66 2 1 C2.46806645 3.33744294 2.82669794 5.69739079 3.125 8.0625 C3.29257813 9.35285156 3.46015625 10.64320313 3.6328125 11.97265625 C3.75398437 12.97167969 3.87515625 13.97070312 4 15 C2.35 15.66 0.7 16.32 -1 17 C-1.02684679 14.35409986 -1.04676357 11.70846904 -1.0625 9.0625 C-1.07087891 8.30775391 -1.07925781 7.55300781 -1.08789062 6.77539062 C-1.09652441 4.85005687 -1.05224333 2.92464419 -1 1 C-0.67 0.67 -0.34 0.34 0 0 Z " fill="#ACDEC5" transform="translate(1,460)"/>
<path d="M0 0 C2.88689962 1.11750953 5.16150909 2.48417034 7 5 C6.6875 7.1875 6.6875 7.1875 6 9 C2.21479387 8.45925627 0.40822445 6.92427254 -2 4 C-2 3.01 -2 2.02 -2 1 C-1.34 0.67 -0.68 0.34 0 0 Z " fill="#151515" transform="translate(492,354)"/>
<path d="M0 0 C0 3 0 3 -1.53125 4.60546875 C-2.1809375 5.12753906 -2.830625 5.64960938 -3.5 6.1875 C-4.1496875 6.71730469 -4.799375 7.24710937 -5.46875 7.79296875 C-5.9740625 8.19128906 -6.479375 8.58960938 -7 9 C-5.27845212 5.23511958 -3.00765886 2.84936103 0 0 Z M-9 9 C-7 10 -7 10 -5 13 C-6.98 13.99 -6.98 13.99 -9 15 C-9.99 14.34 -10.98 13.68 -12 13 C-11.01 11.68 -10.02 10.36 -9 9 Z M-15 15 C-14.01 15.495 -14.01 15.495 -13 16 C-13.99 16.495 -13.99 16.495 -15 17 C-15 16.34 -15 15.68 -15 15 Z M-17 17 C-16.34 17.33 -15.68 17.66 -15 18 C-15.99 18 -16.98 18 -18 18 C-17.67 17.67 -17.34 17.34 -17 17 Z " fill="#D7D7D7" transform="translate(461,337)"/>
<path d="M0 0 C3.76687864 1.88343932 4.79421646 2.69132469 7 6 C6.01 6.495 6.01 6.495 5 7 C4.01 6.67 3.02 6.34 2 6 C1.67 8.97 1.34 11.94 1 15 C0.67 15 0.34 15 0 15 C0 10.05 0 5.1 0 0 Z " fill="#DADADA" transform="translate(468,337)"/>
<path d="M0 0 C2.31 0.33 4.62 0.66 7 1 C5.68 1.33 4.36 1.66 3 2 C2.34 4.31 1.68 6.62 1 9 C0.67 9 0.34 9 0 9 C0 6.03 0 3.06 0 0 Z " fill="#0F0F0F" transform="translate(238,511)"/>
<path d="M0 0 C0 3 0 3 -2 6 C-3.65 5.67 -5.3 5.34 -7 5 C-5.49336217 1.98672434 -2.96833589 1.38943382 0 0 Z " fill="#191919" transform="translate(439,357)"/>
<path d="M0 0 C2.125 0.9375 2.125 0.9375 4 2 C3.34 2.66 2.68 3.32 2 4 C2 4.99 2 5.98 2 7 C0 5.6875 0 5.6875 -2 4 C-2 3.01 -2 2.02 -2 1 C-1.34 0.67 -0.68 0.34 0 0 Z " fill="#1E1E1E" transform="translate(492,354)"/>
<path d="M0 0 C1.98 1.65 3.96 3.3 6 5 C5.01 5.99 4.02 6.98 3 8 C2.67 7.01 2.34 6.02 2 5 C1.01 4.34 0.02 3.68 -1 3 C-0.67 2.01 -0.34 1.02 0 0 Z " fill="#E9E9E9" transform="translate(484,352)"/>
<path d="M0 0 C-0.66 1.32 -1.32 2.64 -2 4 C-2.598125 3.54625 -3.19625 3.0925 -3.8125 2.625 C-5.50590652 1.36704087 -7.24477086 0.17015276 -9 -1 C-5.23375329 -2.25541557 -3.62811066 -1.37061958 0 0 Z " fill="#D8EAF6" transform="translate(479,282)"/>
<path d="M0 0 C0.99 0.66 1.98 1.32 3 2 C0.66603411 3.55597726 -1.42656829 4.92081896 -4 6 C-4.66 5.67 -5.32 5.34 -6 5 C-4.02 3.35 -2.04 1.7 0 0 Z " fill="#185BA6" transform="translate(459,282)"/>
</svg>
